<svg id="visual" viewBox="0 0 500 50" width="500" height="50" xmlns="http://www.w3.org/2000/svg" xmlns:xlink="http://www.w3.org/1999/xlink" version="1.1"><rect x="0" y="0" width="500" height="50" fill="#ff922b"></rect><path d="M0 17L11.8 17.2C23.7 17.3 47.3 17.7 71.2 18C95 18.3 119 18.7 142.8 18.2C166.7 17.7 190.3 16.3 214.2 16.3C238 16.3 262 17.7 285.8 18C309.7 18.3 333.3 17.7 357.2 17.8C381 18 405 19 428.8 18.3C452.7 17.7 476.3 15.3 488.2 14.2L500 13L500 0L488.2 0C476.3 0 452.7 0 428.8 0C405 0 381 0 357.2 0C333.3 0 309.7 0 285.8 0C262 0 238 0 214.2 0C190.3 0 166.7 0 142.8 0C119 0 95 0 71.2 0C47.3 0 23.7 0 11.8 0L0 0Z" fill="#ffc078"></path><path d="M0 12L11.8 12.5C23.7 13 47.3 14 71.2 13.8C95 13.7 119 12.3 142.8 12.2C166.7 12 190.3 13 214.2 13.3C238 13.7 262 13.3 285.8 12.8C309.7 12.3 333.3 11.7 357.2 12C381 12.3 405 13.7 428.8 13.7C452.7 13.7 476.3 12.3 488.2 11.7L500 11L500 0L488.2 0C476.3 0 452.7 0 428.8 0C405 0 381 0 357.2 0C333.3 0 309.7 0 285.8 0C262 0 238 0 214.2 0C190.3 0 166.7 0 142.8 0C119 0 95 0 71.2 0C47.3 0 23.7 0 11.8 0L0 0Z" fill="#c1c570"></path><path d="M0 12L11.8 11.2C23.7 10.3 47.3 8.7 71.2 8.2C95 7.7 119 8.3 142.8 8.7C166.7 9 190.3 9 214.2 9C238 9 262 9 285.8 8.5C309.7 8 333.3 7 357.2 6.8C381 6.7 405 7.3 428.8 8.3C452.7 9.3 476.3 10.7 488.2 11.3L500 12L500 0L488.2 0C476.3 0 452.7 0 428.8 0C405 0 381 0 357.2 0C333.3 0 309.7 0 285.8 0C262 0 238 0 214.2 0C190.3 0 166.7 0 142.8 0C119 0 95 0 71.2 0C47.3 0 23.7 0 11.8 0L0 0Z" fill="#80c286"></path><path d="M0 6L11.8 6C23.7 6 47.3 6 71.2 6C95 6 119 6 142.8 6.2C166.7 6.3 190.3 6.7 214.2 6.5C238 6.3 262 5.7 285.8 5.5C309.7 5.3 333.3 5.7 357.2 6C381 6.3 405 6.7 428.8 6.8C452.7 7 476.3 7 488.2 7L500 7L500 0L488.2 0C476.3 0 452.7 0 428.8 0C405 0 381 0 357.2 0C333.3 0 309.7 0 285.8 0C262 0 238 0 214.2 0C190.3 0 166.7 0 142.8 0C119 0 95 0 71.2 0C47.3 0 23.7 0 11.8 0L0 0Z" fill="#3fb9a6"></path><path d="M0 2L11.8 2.2C23.7 2.3 47.3 2.7 71.2 2.8C95 3 119 3 142.8 3.2C166.7 3.3 190.3 3.7 214.2 3.7C238 3.7 262 3.3 285.8 3C309.7 2.7 333.3 2.3 357.2 2.7C381 3 405 4 428.8 4.2C452.7 4.3 476.3 3.7 488.2 3.3L500 3L500 0L488.2 0C476.3 0 452.7 0 428.8 0C405 0 381 0 357.2 0C333.3 0 309.7 0 285.8 0C262 0 238 0 214.2 0C190.3 0 166.7 0 142.8 0C119 0 95 0 71.2 0C47.3 0 23.7 0 11.8 0L0 0Z" fill="#15aabf"></path></svg>