<svg id="visual" viewBox="0 0 500 50" width="500" height="50" xmlns="http://www.w3.org/2000/svg" xmlns:xlink="http://www.w3.org/1999/xlink" version="1.1"><rect x="0" y="0" width="500" height="50" fill="#ff922b"></rect><path d="M0 19L11.8 17.8C23.7 16.7 47.3 14.3 71.2 14.3C95 14.3 119 16.7 142.8 17.7C166.7 18.7 190.3 18.3 214.2 17.7C238 17 262 16 285.8 16C309.7 16 333.3 17 357.2 17.2C381 17.3 405 16.7 428.8 15.8C452.7 15 476.3 14 488.2 13.5L500 13L500 0L488.2 0C476.3 0 452.7 0 428.8 0C405 0 381 0 357.2 0C333.3 0 309.7 0 285.8 0C262 0 238 0 214.2 0C190.3 0 166.7 0 142.8 0C119 0 95 0 71.2 0C47.3 0 23.7 0 11.8 0L0 0Z" fill="#ffc078"></path><path d="M0 12L11.8 12.5C23.7 13 47.3 14 71.2 13.7C95 13.3 119 11.7 142.8 11.5C166.7 11.3 190.3 12.7 214.2 13.3C238 14 262 14 285.8 13.2C309.7 12.3 333.3 10.7 357.2 10.3C381 10 405 11 428.8 11.8C452.7 12.7 476.3 13.3 488.2 13.7L500 14L500 0L488.2 0C476.3 0 452.7 0 428.8 0C405 0 381 0 357.2 0C333.3 0 309.7 0 285.8 0C262 0 238 0 214.2 0C190.3 0 166.7 0 142.8 0C119 0 95 0 71.2 0C47.3 0 23.7 0 11.8 0L0 0Z" fill="#c1c570"></path><path d="M0 11L11.8 10.7C23.7 10.3 47.3 9.7 71.2 9.8C95 10 119 11 142.8 11.5C166.7 12 190.3 12 214.2 11.2C238 10.3 262 8.7 285.8 8.3C309.7 8 333.3 9 357.2 9.8C381 10.7 405 11.3 428.8 11C452.7 10.7 476.3 9.3 488.2 8.7L500 8L500 0L488.2 0C476.3 0 452.7 0 428.8 0C405 0 381 0 357.2 0C333.3 0 309.7 0 285.8 0C262 0 238 0 214.2 0C190.3 0 166.7 0 142.8 0C119 0 95 0 71.2 0C47.3 0 23.7 0 11.8 0L0 0Z" fill="#80c286"></path><path d="M0 5L11.8 5C23.7 5 47.3 5 71.2 5.5C95 6 119 7 142.8 7.5C166.7 8 190.3 8 214.2 7.7C238 7.3 262 6.7 285.8 6C309.7 5.3 333.3 4.7 357.2 4.5C381 4.3 405 4.7 428.8 5.2C452.7 5.7 476.3 6.3 488.2 6.7L500 7L500 0L488.2 0C476.3 0 452.7 0 428.8 0C405 0 381 0 357.2 0C333.3 0 309.7 0 285.8 0C262 0 238 0 214.2 0C190.3 0 166.7 0 142.8 0C119 0 95 0 71.2 0C47.3 0 23.7 0 11.8 0L0 0Z" fill="#3fb9a6"></path><path d="M0 2L11.8 2.3C23.7 2.7 47.3 3.3 71.2 3.7C95 4 119 4 142.8 3.7C166.7 3.3 190.3 2.7 214.2 2.7C238 2.7 262 3.3 285.8 3.3C309.7 3.3 333.3 2.7 357.2 2.8C381 3 405 4 428.8 3.8C452.7 3.7 476.3 2.3 488.2 1.7L500 1L500 0L488.2 0C476.3 0 452.7 0 428.8 0C405 0 381 0 357.2 0C333.3 0 309.7 0 285.8 0C262 0 238 0 214.2 0C190.3 0 166.7 0 142.8 0C119 0 95 0 71.2 0C47.3 0 23.7 0 11.8 0L0 0Z" fill="#15aabf"></path></svg>