<svg id="visual" viewBox="0 0 500 50" width="500" height="50" xmlns="http://www.w3.org/2000/svg" xmlns:xlink="http://www.w3.org/1999/xlink" version="1.1"><rect x="0" y="0" width="500" height="50" fill="#ff922b"></rect><path d="M0 17L11.8 17.2C23.7 17.3 47.3 17.7 71.2 18C95 18.3 119 18.7 142.8 18.8C166.7 19 190.3 19 214.2 18.8C238 18.7 262 18.3 285.8 18.3C309.7 18.3 333.3 18.7 357.2 19C381 19.3 405 19.7 428.8 18.5C452.7 17.3 476.3 14.7 488.2 13.3L500 12L500 0L488.2 0C476.3 0 452.7 0 428.8 0C405 0 381 0 357.2 0C333.3 0 309.7 0 285.8 0C262 0 238 0 214.2 0C190.3 0 166.7 0 142.8 0C119 0 95 0 71.2 0C47.3 0 23.7 0 11.8 0L0 0Z" fill="#ffc078"></path><path d="M0 13L11.8 12.5C23.7 12 47.3 11 71.2 10.5C95 10 119 10 142.8 10.8C166.7 11.7 190.3 13.3 214.2 13.8C238 14.3 262 13.7 285.8 13.3C309.7 13 333.3 13 357.2 12.5C381 12 405 11 428.8 10.8C452.7 10.7 476.3 11.3 488.2 11.7L500 12L500 0L488.2 0C476.3 0 452.7 0 428.8 0C405 0 381 0 357.2 0C333.3 0 309.7 0 285.8 0C262 0 238 0 214.2 0C190.3 0 166.7 0 142.8 0C119 0 95 0 71.2 0C47.3 0 23.7 0 11.8 0L0 0Z" fill="#c1c570"></path><path d="M0 11L11.8 11.2C23.7 11.3 47.3 11.7 71.2 11.5C95 11.3 119 10.7 142.8 10C166.7 9.3 190.3 8.7 214.2 8.5C238 8.3 262 8.7 285.8 8.7C309.7 8.7 333.3 8.3 357.2 8.2C381 8 405 8 428.8 8.3C452.7 8.7 476.3 9.3 488.2 9.7L500 10L500 0L488.2 0C476.3 0 452.7 0 428.8 0C405 0 381 0 357.2 0C333.3 0 309.7 0 285.8 0C262 0 238 0 214.2 0C190.3 0 166.7 0 142.8 0C119 0 95 0 71.2 0C47.3 0 23.7 0 11.8 0L0 0Z" fill="#80c286"></path><path d="M0 4L11.8 4C23.7 4 47.3 4 71.2 4.5C95 5 119 6 142.8 6.3C166.7 6.7 190.3 6.3 214.2 6.2C238 6 262 6 285.8 6.2C309.7 6.3 333.3 6.7 357.2 6.8C381 7 405 7 428.8 6.5C452.7 6 476.3 5 488.2 4.5L500 4L500 0L488.2 0C476.3 0 452.7 0 428.8 0C405 0 381 0 357.2 0C333.3 0 309.7 0 285.8 0C262 0 238 0 214.2 0C190.3 0 166.7 0 142.8 0C119 0 95 0 71.2 0C47.3 0 23.7 0 11.8 0L0 0Z" fill="#3fb9a6"></path><path d="M0 4L11.8 3.8C23.7 3.7 47.3 3.3 71.2 3.3C95 3.3 119 3.7 142.8 3.5C166.7 3.3 190.3 2.7 214.2 2.8C238 3 262 4 285.8 4.3C309.7 4.7 333.3 4.3 357.2 4.2C381 4 405 4 428.8 3.8C452.7 3.7 476.3 3.3 488.2 3.2L500 3L500 0L488.2 0C476.3 0 452.7 0 428.8 0C405 0 381 0 357.2 0C333.3 0 309.7 0 285.8 0C262 0 238 0 214.2 0C190.3 0 166.7 0 142.8 0C119 0 95 0 71.2 0C47.3 0 23.7 0 11.8 0L0 0Z" fill="#15aabf"></path></svg>