<svg id="visual" viewBox="0 0 500 50" width="500" height="50" xmlns="http://www.w3.org/2000/svg" xmlns:xlink="http://www.w3.org/1999/xlink" version="1.1"><rect x="0" y="0" width="500" height="50" fill="#ff922b"></rect><path d="M0 19L11.8 18.3C23.7 17.7 47.3 16.3 71.2 15.5C95 14.7 119 14.3 142.8 14.2C166.7 14 190.3 14 214.2 14.5C238 15 262 16 285.8 16.8C309.7 17.7 333.3 18.3 357.2 18C381 17.7 405 16.3 428.8 15.3C452.7 14.3 476.3 13.7 488.2 13.3L500 13L500 0L488.2 0C476.3 0 452.7 0 428.8 0C405 0 381 0 357.2 0C333.3 0 309.7 0 285.8 0C262 0 238 0 214.2 0C190.3 0 166.7 0 142.8 0C119 0 95 0 71.2 0C47.3 0 23.7 0 11.8 0L0 0Z" fill="#ffc078"></path><path d="M0 10L11.8 10C23.7 10 47.3 10 71.2 9.8C95 9.7 119 9.3 142.8 9.3C166.7 9.3 190.3 9.7 214.2 9.8C238 10 262 10 285.8 10.7C309.7 11.3 333.3 12.7 357.2 12.7C381 12.7 405 11.3 428.8 11.7C452.7 12 476.3 14 488.2 15L500 16L500 0L488.2 0C476.3 0 452.7 0 428.8 0C405 0 381 0 357.2 0C333.3 0 309.7 0 285.8 0C262 0 238 0 214.2 0C190.3 0 166.7 0 142.8 0C119 0 95 0 71.2 0C47.3 0 23.7 0 11.8 0L0 0Z" fill="#c1c570"></path><path d="M0 9L11.8 8.8C23.7 8.7 47.3 8.3 71.2 8.3C95 8.3 119 8.7 142.8 8.8C166.7 9 190.3 9 214.2 9C238 9 262 9 285.8 9C309.7 9 333.3 9 357.2 9.3C381 9.7 405 10.3 428.8 10.8C452.7 11.3 476.3 11.7 488.2 11.8L500 12L500 0L488.2 0C476.3 0 452.7 0 428.8 0C405 0 381 0 357.2 0C333.3 0 309.7 0 285.8 0C262 0 238 0 214.2 0C190.3 0 166.7 0 142.8 0C119 0 95 0 71.2 0C47.3 0 23.7 0 11.8 0L0 0Z" fill="#80c286"></path><path d="M0 4L11.8 4.5C23.7 5 47.3 6 71.2 6C95 6 119 5 142.8 5.2C166.7 5.3 190.3 6.7 214.2 7.2C238 7.7 262 7.3 285.8 7.3C309.7 7.3 333.3 7.7 357.2 8C381 8.3 405 8.7 428.8 8C452.7 7.3 476.3 5.7 488.2 4.8L500 4L500 0L488.2 0C476.3 0 452.7 0 428.8 0C405 0 381 0 357.2 0C333.3 0 309.7 0 285.8 0C262 0 238 0 214.2 0C190.3 0 166.7 0 142.8 0C119 0 95 0 71.2 0C47.3 0 23.7 0 11.8 0L0 0Z" fill="#3fb9a6"></path><path d="M0 4L11.8 4C23.7 4 47.3 4 71.2 3.8C95 3.7 119 3.3 142.8 3.3C166.7 3.3 190.3 3.7 214.2 3.3C238 3 262 2 285.8 1.8C309.7 1.7 333.3 2.3 357.2 3C381 3.7 405 4.3 428.8 4.3C452.7 4.3 476.3 3.7 488.2 3.3L500 3L500 0L488.2 0C476.3 0 452.7 0 428.8 0C405 0 381 0 357.2 0C333.3 0 309.7 0 285.8 0C262 0 238 0 214.2 0C190.3 0 166.7 0 142.8 0C119 0 95 0 71.2 0C47.3 0 23.7 0 11.8 0L0 0Z" fill="#15aabf"></path></svg>