<svg id="visual" viewBox="0 0 900 450" width="900" height="450" xmlns="http://www.w3.org/2000/svg" xmlns:xlink="http://www.w3.org/1999/xlink" version="1.1"><rect width="900" height="450" fill="#1c7ed6"></rect><g><g transform="translate(278 146)"><path d="M0 -11.4L9.8 -5.7L9.8 5.7L0 11.4L-9.8 5.7L-9.8 -5.7Z" fill="none" stroke="#dbe4ff" stroke-width="3"></path></g><g transform="translate(434 327)"><path d="M0 -8L6.9 -4L6.9 4L0 8L-6.9 4L-6.9 -4Z" stroke="#dbe4ff" fill="none" stroke-width="3"></path></g><g transform="translate(733 334)"><path d="M0 -8L6.9 -4L6.9 4L0 8L-6.9 4L-6.9 -4Z" stroke="#dbe4ff" fill="none" stroke-width="3"></path></g><g transform="translate(766 274)"><path d="M0 -8L6.9 -4L6.9 4L0 8L-6.9 4L-6.9 -4Z" stroke="#dbe4ff" fill="none" stroke-width="3"></path></g><g transform="translate(829 330)"><path d="M0 -9L7.8 -4.5L7.8 4.5L0 9L-7.8 4.5L-7.8 -4.5Z" stroke="#dbe4ff" fill="none" stroke-width="3"></path></g><g transform="translate(562 337)"><path d="M0 -10L8.7 -5L8.7 5L0 10L-8.7 5L-8.7 -5Z" stroke="#dbe4ff" fill="none" stroke-width="3"></path></g><g transform="translate(182 185)"><path d="M0 -7L6.1 -3.5L6.1 3.5L0 7L-6.1 3.5L-6.1 -3.5Z" stroke="#dbe4ff" fill="none" stroke-width="3"></path></g><g transform="translate(326 352)"><path d="M0 -7L6.1 -3.5L6.1 3.5L0 7L-6.1 3.5L-6.1 -3.5Z" stroke="#dbe4ff" fill="none" stroke-width="3"></path></g><g transform="translate(573 306)"><path d="M0 -8L6.9 -4L6.9 4L0 8L-6.9 4L-6.9 -4Z" stroke="#dbe4ff" fill="none" stroke-width="3"></path></g><g transform="translate(510 336)"><path d="M0 -10L8.7 -5L8.7 5L0 10L-8.7 5L-8.7 -5Z" stroke="#dbe4ff" fill="none" stroke-width="3"></path></g><g transform="translate(804 347)"><path d="M0 -8L6.9 -4L6.9 4L0 8L-6.9 4L-6.9 -4Z" stroke="#dbe4ff" fill="none" stroke-width="3"></path></g><g transform="translate(301 62)"><path d="M0 -10L8.7 -5L8.7 5L0 10L-8.7 5L-8.7 -5Z" stroke="#dbe4ff" fill="none" stroke-width="3"></path></g><g transform="translate(62 319)"><path d="M0 -10L8.7 -5L8.7 5L0 10L-8.7 5L-8.7 -5Z" stroke="#dbe4ff" fill="none" stroke-width="3"></path></g><g transform="translate(225 35)"><path d="M0 -9L7.8 -4.5L7.8 4.5L0 9L-7.8 4.5L-7.8 -4.5Z" stroke="#dbe4ff" fill="none" stroke-width="3"></path></g><g transform="translate(690 138)"><path d="M0 -8L6.9 -4L6.9 4L0 8L-6.9 4L-6.9 -4Z" stroke="#dbe4ff" fill="none" stroke-width="3"></path></g><g transform="translate(85 90)"><path d="M0 -8L6.9 -4L6.9 4L0 8L-6.9 4L-6.9 -4Z" stroke="#dbe4ff" fill="none" stroke-width="3"></path></g><g transform="translate(788 34)"><path d="M0 -7L6.1 -3.5L6.1 3.5L0 7L-6.1 3.5L-6.1 -3.5Z" stroke="#dbe4ff" fill="none" stroke-width="3"></path></g><g transform="translate(116 347)"><path d="M0 -8L6.9 -4L6.9 4L0 8L-6.9 4L-6.9 -4Z" stroke="#dbe4ff" fill="none" stroke-width="3"></path></g><g transform="translate(653 164)"><path d="M0 -9L7.8 -4.5L7.8 4.5L0 9L-7.8 4.5L-7.8 -4.5Z" stroke="#dbe4ff" fill="none" stroke-width="3"></path></g><g transform="translate(564 170)"><path d="M0 -7L6.1 -3.5L6.1 3.5L0 7L-6.1 3.5L-6.1 -3.5Z" stroke="#dbe4ff" fill="none" stroke-width="3"></path></g><g transform="translate(349 337)"><path d="M0 -7L6.1 -3.5L6.1 3.5L0 7L-6.1 3.5L-6.1 -3.5Z" stroke="#dbe4ff" fill="none" stroke-width="3"></path></g><g transform="translate(422 224)"><path d="M0 -10L8.7 -5L8.7 5L0 10L-8.7 5L-8.7 -5Z" stroke="#dbe4ff" fill="none" stroke-width="3"></path></g><g transform="translate(877 426)"><path d="M0 -8L6.9 -4L6.9 4L0 8L-6.9 4L-6.9 -4Z" stroke="#dbe4ff" fill="none" stroke-width="3"></path></g><g transform="translate(398 319)"><path d="M0 -9L7.8 -4.5L7.8 4.5L0 9L-7.8 4.5L-7.8 -4.5Z" stroke="#dbe4ff" fill="none" stroke-width="3"></path></g><g transform="translate(813 197)"><path d="M0 -7L6.1 -3.5L6.1 3.5L0 7L-6.1 3.5L-6.1 -3.5Z" stroke="#dbe4ff" fill="none" stroke-width="3"></path></g><g transform="translate(536 110)"><path d="M0 -10L8.7 -5L8.7 5L0 10L-8.7 5L-8.7 -5Z" stroke="#dbe4ff" fill="none" stroke-width="3"></path></g><g transform="translate(43 53)"><path d="M0 -9L7.8 -4.5L7.8 4.5L0 9L-7.8 4.5L-7.8 -4.5Z" stroke="#dbe4ff" fill="none" stroke-width="3"></path></g></g></svg>