<svg id="visual" viewBox="0 0 500 15" width="500" height="15" xmlns="http://www.w3.org/2000/svg" xmlns:xlink="http://www.w3.org/1999/xlink" version="1.1"><rect x="0" y="0" width="500" height="15" fill="#393e46"></rect><path d="M0 12L2.7 12C5.3 12 10.7 12 16 10.3C21.3 8.7 26.7 5.3 32 3.3C37.3 1.3 42.7 0.7 48.2 0.3C53.7 0 59.3 0 64.8 1C70.3 2 75.7 4 81 6.3C86.3 8.7 91.7 11.3 97 12.3C102.3 13.3 107.7 12.7 113 12.2C118.3 11.7 123.7 11.3 129 10.3C134.3 9.3 139.7 7.7 145 6.5C150.3 5.3 155.7 4.7 161 4.8C166.3 5 171.7 6 177.2 7.5C182.7 9 188.3 11 193.8 10.3C199.3 9.7 204.7 6.3 210 6.5C215.3 6.7 220.7 10.3 226 11C231.3 11.7 236.7 9.3 242 8C247.3 6.7 252.7 6.3 258 5.7C263.3 5 268.7 4 274 4.3C279.3 4.7 284.7 6.3 290 7.7C295.3 9 300.7 10 306.2 9.7C311.7 9.3 317.3 7.7 322.8 6.3C328.3 5 333.7 4 339 3.7C344.3 3.3 349.7 3.7 355 3.5C360.3 3.3 365.7 2.7 371 3.7C376.3 4.7 381.7 7.3 387 7.3C392.3 7.3 397.7 4.7 403 3.5C408.3 2.3 413.7 2.7 419 4C424.3 5.3 429.7 7.7 435.2 8.3C440.7 9 446.3 8 451.8 7.3C457.3 6.7 462.7 6.3 468 7.3C473.3 8.3 478.7 10.7 484 10.7C489.3 10.7 494.7 8.3 497.3 7.2L500 6L500 0L497.3 0C494.7 0 489.3 0 484 0C478.7 0 473.3 0 468 0C462.7 0 457.3 0 451.8 0C446.3 0 440.7 0 435.2 0C429.7 0 424.3 0 419 0C413.7 0 408.3 0 403 0C397.7 0 392.3 0 387 0C381.7 0 376.3 0 371 0C365.7 0 360.3 0 355 0C349.7 0 344.3 0 339 0C333.7 0 328.3 0 322.8 0C317.3 0 311.7 0 306.2 0C300.7 0 295.3 0 290 0C284.7 0 279.3 0 274 0C268.7 0 263.3 0 258 0C252.7 0 247.3 0 242 0C236.7 0 231.3 0 226 0C220.7 0 215.3 0 210 0C204.7 0 199.3 0 193.8 0C188.3 0 182.7 0 177.2 0C171.7 0 166.3 0 161 0C155.7 0 150.3 0 145 0C139.7 0 134.3 0 129 0C123.7 0 118.3 0 113 0C107.7 0 102.3 0 97 0C91.7 0 86.3 0 81 0C75.7 0 70.3 0 64.8 0C59.3 0 53.7 0 48.2 0C42.7 0 37.3 0 32 0C26.7 0 21.3 0 16 0C10.7 0 5.3 0 2.7 0L0 0Z" fill="#222831" stroke-linecap="round" stroke-linejoin="miter"></path></svg>