<svg id="visual" viewBox="0 0 500 15" width="500" height="15" xmlns="http://www.w3.org/2000/svg" xmlns:xlink="http://www.w3.org/1999/xlink" version="1.1"><rect x="0" y="0" width="500" height="15" fill="#ffd369"></rect><path d="M0 8L3.7 6.7C7.3 5.3 14.7 2.7 21.8 1.3C29 0 36 0 43.2 1.7C50.3 3.3 57.7 6.7 65 8.2C72.3 9.7 79.7 9.3 87 8C94.3 6.7 101.7 4.3 108.8 4.8C116 5.3 123 8.7 130.2 9.7C137.3 10.7 144.7 9.3 152 7.3C159.3 5.3 166.7 2.7 174 2.8C181.3 3 188.7 6 195.8 6C203 6 210 3 217.2 3.2C224.3 3.3 231.7 6.7 239 7.8C246.3 9 253.7 8 261 7.2C268.3 6.3 275.7 5.7 282.8 5.3C290 5 297 5 304.2 6.2C311.3 7.3 318.7 9.7 326 10.5C333.3 11.3 340.7 10.7 348 8.8C355.3 7 362.7 4 369.8 3.8C377 3.7 384 6.3 391.2 6.7C398.3 7 405.7 5 413 5.2C420.3 5.3 427.7 7.7 435 8C442.3 8.3 449.7 6.7 456.8 6.8C464 7 471 9 478.2 9.7C485.3 10.3 492.7 9.7 496.3 9.3L500 9L500 0L496.3 0C492.7 0 485.3 0 478.2 0C471 0 464 0 456.8 0C449.7 0 442.3 0 435 0C427.7 0 420.3 0 413 0C405.7 0 398.3 0 391.2 0C384 0 377 0 369.8 0C362.7 0 355.3 0 348 0C340.7 0 333.3 0 326 0C318.7 0 311.3 0 304.2 0C297 0 290 0 282.8 0C275.7 0 268.3 0 261 0C253.7 0 246.3 0 239 0C231.7 0 224.3 0 217.2 0C210 0 203 0 195.8 0C188.7 0 181.3 0 174 0C166.7 0 159.3 0 152 0C144.7 0 137.3 0 130.2 0C123 0 116 0 108.8 0C101.7 0 94.3 0 87 0C79.7 0 72.3 0 65 0C57.7 0 50.3 0 43.2 0C36 0 29 0 21.8 0C14.7 0 7.3 0 3.7 0L0 0Z" fill="#ffd370"></path><path d="M0 10L3.7 9C7.3 8 14.7 6 21.8 5.8C29 5.7 36 7.3 43.2 7C50.3 6.7 57.7 4.3 65 3.5C72.3 2.7 79.7 3.3 87 4.3C94.3 5.3 101.7 6.7 108.8 7C116 7.3 123 6.7 130.2 6.7C137.3 6.7 144.7 7.3 152 8.3C159.3 9.3 166.7 10.7 174 10.3C181.3 10 188.7 8 195.8 6C203 4 210 2 217.2 1.8C224.3 1.7 231.7 3.3 239 4.7C246.3 6 253.7 7 261 8.2C268.3 9.3 275.7 10.7 282.8 10C290 9.3 297 6.7 304.2 6.5C311.3 6.3 318.7 8.7 326 9.5C333.3 10.3 340.7 9.7 348 7.8C355.3 6 362.7 3 369.8 1.8C377 0.7 384 1.3 391.2 1.3C398.3 1.3 405.7 0.7 413 1.5C420.3 2.3 427.7 4.7 435 6.2C442.3 7.7 449.7 8.3 456.8 8.3C464 8.3 471 7.7 478.2 7.8C485.3 8 492.7 9 496.3 9.5L500 10L500 0L496.3 0C492.7 0 485.3 0 478.2 0C471 0 464 0 456.8 0C449.7 0 442.3 0 435 0C427.7 0 420.3 0 413 0C405.7 0 398.3 0 391.2 0C384 0 377 0 369.8 0C362.7 0 355.3 0 348 0C340.7 0 333.3 0 326 0C318.7 0 311.3 0 304.2 0C297 0 290 0 282.8 0C275.7 0 268.3 0 261 0C253.7 0 246.3 0 239 0C231.7 0 224.3 0 217.2 0C210 0 203 0 195.8 0C188.7 0 181.3 0 174 0C166.7 0 159.3 0 152 0C144.7 0 137.3 0 130.2 0C123 0 116 0 108.8 0C101.7 0 94.3 0 87 0C79.7 0 72.3 0 65 0C57.7 0 50.3 0 43.2 0C36 0 29 0 21.8 0C14.7 0 7.3 0 3.7 0L0 0Z" fill="#feb96f"></path><path d="M0 7L3.7 6.7C7.3 6.3 14.7 5.7 21.8 6.3C29 7 36 9 43.2 8.3C50.3 7.7 57.7 4.3 65 3.3C72.3 2.3 79.7 3.7 87 4.5C94.3 5.3 101.7 5.7 108.8 6.3C116 7 123 8 130.2 8.5C137.3 9 144.7 9 152 7.7C159.3 6.3 166.7 3.7 174 2.7C181.3 1.7 188.7 2.3 195.8 3.5C203 4.7 210 6.3 217.2 6.7C224.3 7 231.7 6 239 5.2C246.3 4.3 253.7 3.7 261 3.7C268.3 3.7 275.7 4.3 282.8 3.8C290 3.3 297 1.7 304.2 1.5C311.3 1.3 318.7 2.7 326 3.2C333.3 3.7 340.7 3.3 348 3C355.3 2.7 362.7 2.3 369.8 2C377 1.7 384 1.3 391.2 1.8C398.3 2.3 405.7 3.7 413 5C420.3 6.3 427.7 7.7 435 8.7C442.3 9.7 449.7 10.3 456.8 8.8C464 7.3 471 3.7 478.2 2.8C485.3 2 492.7 4 496.3 5L500 6L500 0L496.3 0C492.7 0 485.3 0 478.2 0C471 0 464 0 456.8 0C449.7 0 442.3 0 435 0C427.7 0 420.3 0 413 0C405.7 0 398.3 0 391.2 0C384 0 377 0 369.8 0C362.7 0 355.3 0 348 0C340.7 0 333.3 0 326 0C318.7 0 311.3 0 304.2 0C297 0 290 0 282.8 0C275.7 0 268.3 0 261 0C253.7 0 246.3 0 239 0C231.7 0 224.3 0 217.2 0C210 0 203 0 195.8 0C188.7 0 181.3 0 174 0C166.7 0 159.3 0 152 0C144.7 0 137.3 0 130.2 0C123 0 116 0 108.8 0C101.7 0 94.3 0 87 0C79.7 0 72.3 0 65 0C57.7 0 50.3 0 43.2 0C36 0 29 0 21.8 0C14.7 0 7.3 0 3.7 0L0 0Z" fill="#f6a173"></path><path d="M0 8L3.7 6.8C7.3 5.7 14.7 3.3 21.8 2C29 0.7 36 0.3 43.2 0.2C50.3 0 57.7 0 65 0.8C72.3 1.7 79.7 3.3 87 4.5C94.3 5.7 101.7 6.3 108.8 5.5C116 4.7 123 2.3 130.2 2C137.3 1.7 144.7 3.3 152 3.8C159.3 4.3 166.7 3.7 174 3.7C181.3 3.7 188.7 4.3 195.8 4.2C203 4 210 3 217.2 2.3C224.3 1.7 231.7 1.3 239 2C246.3 2.7 253.7 4.3 261 5.8C268.3 7.3 275.7 8.7 282.8 8.8C290 9 297 8 304.2 6.3C311.3 4.7 318.7 2.3 326 1.8C333.3 1.3 340.7 2.7 348 3.2C355.3 3.7 362.7 3.3 369.8 3.2C377 3 384 3 391.2 2.8C398.3 2.7 405.7 2.3 413 2.2C420.3 2 427.7 2 435 3.2C442.3 4.3 449.7 6.7 456.8 6.3C464 6 471 3 478.2 1.8C485.3 0.7 492.7 1.3 496.3 1.7L500 2L500 0L496.3 0C492.7 0 485.3 0 478.2 0C471 0 464 0 456.8 0C449.7 0 442.3 0 435 0C427.7 0 420.3 0 413 0C405.7 0 398.3 0 391.2 0C384 0 377 0 369.8 0C362.7 0 355.3 0 348 0C340.7 0 333.3 0 326 0C318.7 0 311.3 0 304.2 0C297 0 290 0 282.8 0C275.7 0 268.3 0 261 0C253.7 0 246.3 0 239 0C231.7 0 224.3 0 217.2 0C210 0 203 0 195.8 0C188.7 0 181.3 0 174 0C166.7 0 159.3 0 152 0C144.7 0 137.3 0 130.2 0C123 0 116 0 108.8 0C101.7 0 94.3 0 87 0C79.7 0 72.3 0 65 0C57.7 0 50.3 0 43.2 0C36 0 29 0 21.8 0C14.7 0 7.3 0 3.7 0L0 0Z" fill="#e78c78"></path><path d="M0 7L3.7 6.5C7.3 6 14.7 5 21.8 5.2C29 5.3 36 6.7 43.2 7.2C50.3 7.7 57.7 7.3 65 7.5C72.3 7.7 79.7 8.3 87 7.7C94.3 7 101.7 5 108.8 5C116 5 123 7 130.2 8C137.3 9 144.7 9 152 7.8C159.3 6.7 166.7 4.3 174 3.7C181.3 3 188.7 4 195.8 3.7C203 3.3 210 1.7 217.2 1.3C224.3 1 231.7 2 239 2.7C246.3 3.3 253.7 3.7 261 3.7C268.3 3.7 275.7 3.3 282.8 3.7C290 4 297 5 304.2 6C311.3 7 318.7 8 326 7C333.3 6 340.7 3 348 1.7C355.3 0.3 362.7 0.7 369.8 1.5C377 2.3 384 3.7 391.2 4C398.3 4.3 405.7 3.7 413 4.3C420.3 5 427.7 7 435 7.7C442.3 8.3 449.7 7.7 456.8 6.7C464 5.7 471 4.3 478.2 4.2C485.3 4 492.7 5 496.3 5.5L500 6L500 0L496.3 0C492.7 0 485.3 0 478.2 0C471 0 464 0 456.8 0C449.7 0 442.3 0 435 0C427.7 0 420.3 0 413 0C405.7 0 398.3 0 391.2 0C384 0 377 0 369.8 0C362.7 0 355.3 0 348 0C340.7 0 333.3 0 326 0C318.7 0 311.3 0 304.2 0C297 0 290 0 282.8 0C275.7 0 268.3 0 261 0C253.7 0 246.3 0 239 0C231.7 0 224.3 0 217.2 0C210 0 203 0 195.8 0C188.7 0 181.3 0 174 0C166.7 0 159.3 0 152 0C144.7 0 137.3 0 130.2 0C123 0 116 0 108.8 0C101.7 0 94.3 0 87 0C79.7 0 72.3 0 65 0C57.7 0 50.3 0 43.2 0C36 0 29 0 21.8 0C14.7 0 7.3 0 3.7 0L0 0Z" fill="#d27a7c"></path><path d="M0 5L3.7 5.3C7.3 5.7 14.7 6.3 21.8 5.5C29 4.7 36 2.3 43.2 1.2C50.3 0 57.7 0 65 0.3C72.3 0.7 79.7 1.3 87 2.2C94.3 3 101.7 4 108.8 4.2C116 4.3 123 3.7 130.2 3.8C137.3 4 144.7 5 152 5.8C159.3 6.7 166.7 7.3 174 7.5C181.3 7.7 188.7 7.3 195.8 7.2C203 7 210 7 217.2 6.3C224.3 5.7 231.7 4.3 239 3.3C246.3 2.3 253.7 1.7 261 2.2C268.3 2.7 275.7 4.3 282.8 4.8C290 5.3 297 4.7 304.2 4.5C311.3 4.3 318.7 4.7 326 4.5C333.3 4.3 340.7 3.7 348 3.5C355.3 3.3 362.7 3.7 369.8 4.2C377 4.7 384 5.3 391.2 5.7C398.3 6 405.7 6 413 5.7C420.3 5.3 427.7 4.7 435 3.7C442.3 2.7 449.7 1.3 456.8 1.5C464 1.7 471 3.3 478.2 4.2C485.3 5 492.7 5 496.3 5L500 5L500 0L496.3 0C492.7 0 485.3 0 478.2 0C471 0 464 0 456.8 0C449.7 0 442.3 0 435 0C427.7 0 420.3 0 413 0C405.7 0 398.3 0 391.2 0C384 0 377 0 369.8 0C362.7 0 355.3 0 348 0C340.7 0 333.3 0 326 0C318.7 0 311.3 0 304.2 0C297 0 290 0 282.8 0C275.7 0 268.3 0 261 0C253.7 0 246.3 0 239 0C231.7 0 224.3 0 217.2 0C210 0 203 0 195.8 0C188.7 0 181.3 0 174 0C166.7 0 159.3 0 152 0C144.7 0 137.3 0 130.2 0C123 0 116 0 108.8 0C101.7 0 94.3 0 87 0C79.7 0 72.3 0 65 0C57.7 0 50.3 0 43.2 0C36 0 29 0 21.8 0C14.7 0 7.3 0 3.7 0L0 0Z" fill="#b86c7e"></path><path d="M0 4L3.7 3.7C7.3 3.3 14.7 2.7 21.8 2.3C29 2 36 2 43.2 2.5C50.3 3 57.7 4 65 3.7C72.3 3.3 79.7 1.7 87 1.5C94.3 1.3 101.7 2.7 108.8 3.7C116 4.7 123 5.3 130.2 5.3C137.3 5.3 144.7 4.7 152 4.3C159.3 4 166.7 4 174 3.8C181.3 3.7 188.7 3.3 195.8 2.8C203 2.3 210 1.7 217.2 1.5C224.3 1.3 231.7 1.7 239 2.5C246.3 3.3 253.7 4.7 261 5.5C268.3 6.3 275.7 6.7 282.8 5.8C290 5 297 3 304.2 2.3C311.3 1.7 318.7 2.3 326 2.2C333.3 2 340.7 1 348 1.5C355.3 2 362.7 4 369.8 4.7C377 5.3 384 4.7 391.2 3.7C398.3 2.7 405.7 1.3 413 0.8C420.3 0.3 427.7 0.7 435 0.8C442.3 1 449.7 1 456.8 2C464 3 471 5 478.2 6C485.3 7 492.7 7 496.3 7L500 7L500 0L496.3 0C492.7 0 485.3 0 478.2 0C471 0 464 0 456.8 0C449.7 0 442.3 0 435 0C427.7 0 420.3 0 413 0C405.7 0 398.3 0 391.2 0C384 0 377 0 369.8 0C362.7 0 355.3 0 348 0C340.7 0 333.3 0 326 0C318.7 0 311.3 0 304.2 0C297 0 290 0 282.8 0C275.7 0 268.3 0 261 0C253.7 0 246.3 0 239 0C231.7 0 224.3 0 217.2 0C210 0 203 0 195.8 0C188.7 0 181.3 0 174 0C166.7 0 159.3 0 152 0C144.7 0 137.3 0 130.2 0C123 0 116 0 108.8 0C101.7 0 94.3 0 87 0C79.7 0 72.3 0 65 0C57.7 0 50.3 0 43.2 0C36 0 29 0 21.8 0C14.7 0 7.3 0 3.7 0L0 0Z" fill="#9b607b"></path><path d="M0 0L3.7 0.8C7.3 1.7 14.7 3.3 21.8 3.3C29 3.3 36 1.7 43.2 1.8C50.3 2 57.7 4 65 4.2C72.3 4.3 79.7 2.7 87 2.3C94.3 2 101.7 3 108.8 3.5C116 4 123 4 130.2 3.3C137.3 2.7 144.7 1.3 152 0.7C159.3 0 166.7 0 174 0.5C181.3 1 188.7 2 195.8 2.8C203 3.7 210 4.3 217.2 4.5C224.3 4.7 231.7 4.3 239 4C246.3 3.7 253.7 3.3 261 3.5C268.3 3.7 275.7 4.3 282.8 4C290 3.7 297 2.3 304.2 2.2C311.3 2 318.7 3 326 3.7C333.3 4.3 340.7 4.7 348 4.2C355.3 3.7 362.7 2.3 369.8 1.5C377 0.7 384 0.3 391.2 0.2C398.3 0 405.7 0 413 0.7C420.3 1.3 427.7 2.7 435 3.5C442.3 4.3 449.7 4.7 456.8 4.5C464 4.3 471 3.7 478.2 3.8C485.3 4 492.7 5 496.3 5.5L500 6L500 0L496.3 0C492.7 0 485.3 0 478.2 0C471 0 464 0 456.8 0C449.7 0 442.3 0 435 0C427.7 0 420.3 0 413 0C405.7 0 398.3 0 391.2 0C384 0 377 0 369.8 0C362.7 0 355.3 0 348 0C340.7 0 333.3 0 326 0C318.7 0 311.3 0 304.2 0C297 0 290 0 282.8 0C275.7 0 268.3 0 261 0C253.7 0 246.3 0 239 0C231.7 0 224.3 0 217.2 0C210 0 203 0 195.8 0C188.7 0 181.3 0 174 0C166.7 0 159.3 0 152 0C144.7 0 137.3 0 130.2 0C123 0 116 0 108.8 0C101.7 0 94.3 0 87 0C79.7 0 72.3 0 65 0C57.7 0 50.3 0 43.2 0C36 0 29 0 21.8 0C14.7 0 7.3 0 3.7 0L0 0Z" fill="#7d5674"></path><path d="M0 1L3.7 0.8C7.3 0.7 14.7 0.3 21.8 0.3C29 0.3 36 0.7 43.2 0.7C50.3 0.7 57.7 0.3 65 0.2C72.3 0 79.7 0 87 0C94.3 0 101.7 0 108.8 0.7C116 1.3 123 2.7 130.2 3.2C137.3 3.7 144.7 3.3 152 3C159.3 2.7 166.7 2.3 174 1.8C181.3 1.3 188.7 0.7 195.8 0.5C203 0.3 210 0.7 217.2 1C224.3 1.3 231.7 1.7 239 1.8C246.3 2 253.7 2 261 1.8C268.3 1.7 275.7 1.3 282.8 1.5C290 1.7 297 2.3 304.2 2.2C311.3 2 318.7 1 326 1.3C333.3 1.7 340.7 3.3 348 3.8C355.3 4.3 362.7 3.7 369.8 3C377 2.3 384 1.7 391.2 1.5C398.3 1.3 405.7 1.7 413 2.3C420.3 3 427.7 4 435 3.8C442.3 3.7 449.7 2.3 456.8 1.5C464 0.7 471 0.3 478.2 0.2C485.3 0 492.7 0 496.3 0L500 0L500 0L496.3 0C492.7 0 485.3 0 478.2 0C471 0 464 0 456.8 0C449.7 0 442.3 0 435 0C427.7 0 420.3 0 413 0C405.7 0 398.3 0 391.2 0C384 0 377 0 369.8 0C362.7 0 355.3 0 348 0C340.7 0 333.3 0 326 0C318.7 0 311.3 0 304.2 0C297 0 290 0 282.8 0C275.7 0 268.3 0 261 0C253.7 0 246.3 0 239 0C231.7 0 224.3 0 217.2 0C210 0 203 0 195.8 0C188.7 0 181.3 0 174 0C166.7 0 159.3 0 152 0C144.7 0 137.3 0 130.2 0C123 0 116 0 108.8 0C101.7 0 94.3 0 87 0C79.7 0 72.3 0 65 0C57.7 0 50.3 0 43.2 0C36 0 29 0 21.8 0C14.7 0 7.3 0 3.7 0L0 0Z" fill="#604c68"></path><path d="M0 3L3.7 2.5C7.3 2 14.7 1 21.8 0.5C29 0 36 0 43.2 0C50.3 0 57.7 0 65 0.2C72.3 0.3 79.7 0.7 87 0.7C94.3 0.7 101.7 0.3 108.8 0.3C116 0.3 123 0.7 130.2 0.7C137.3 0.7 144.7 0.3 152 0.5C159.3 0.7 166.7 1.3 174 2C181.3 2.7 188.7 3.3 195.8 3.2C203 3 210 2 217.2 1.5C224.3 1 231.7 1 239 1.2C246.3 1.3 253.7 1.7 261 1.8C268.3 2 275.7 2 282.8 1.8C290 1.7 297 1.3 304.2 1.3C311.3 1.3 318.7 1.7 326 1.7C333.3 1.7 340.7 1.3 348 1C355.3 0.7 362.7 0.3 369.8 0.3C377 0.3 384 0.7 391.2 0.7C398.3 0.7 405.7 0.3 413 0.7C420.3 1 427.7 2 435 2.5C442.3 3 449.7 3 456.8 3C464 3 471 3 478.2 2.5C485.3 2 492.7 1 496.3 0.5L500 0L500 0L496.3 0C492.7 0 485.3 0 478.2 0C471 0 464 0 456.8 0C449.7 0 442.3 0 435 0C427.7 0 420.3 0 413 0C405.7 0 398.3 0 391.2 0C384 0 377 0 369.8 0C362.7 0 355.3 0 348 0C340.7 0 333.3 0 326 0C318.7 0 311.3 0 304.2 0C297 0 290 0 282.8 0C275.7 0 268.3 0 261 0C253.7 0 246.3 0 239 0C231.7 0 224.3 0 217.2 0C210 0 203 0 195.8 0C188.7 0 181.3 0 174 0C166.7 0 159.3 0 152 0C144.7 0 137.3 0 130.2 0C123 0 116 0 108.8 0C101.7 0 94.3 0 87 0C79.7 0 72.3 0 65 0C57.7 0 50.3 0 43.2 0C36 0 29 0 21.8 0C14.7 0 7.3 0 3.7 0L0 0Z" fill="#464158"></path><path d="M0 1L3.7 1C7.3 1 14.7 1 21.8 0.8C29 0.7 36 0.3 43.2 0.5C50.3 0.7 57.7 1.3 65 1.5C72.3 1.7 79.7 1.3 87 1.2C94.3 1 101.7 1 108.8 0.8C116 0.7 123 0.3 130.2 0.2C137.3 0 144.7 0 152 0.3C159.3 0.7 166.7 1.3 174 1.5C181.3 1.7 188.7 1.3 195.8 1.2C203 1 210 1 217.2 1C224.3 1 231.7 1 239 1.2C246.3 1.3 253.7 1.7 261 1.5C268.3 1.3 275.7 0.7 282.8 0.5C290 0.3 297 0.7 304.2 1C311.3 1.3 318.7 1.7 326 1.7C333.3 1.7 340.7 1.3 348 1C355.3 0.7 362.7 0.3 369.8 0.5C377 0.7 384 1.3 391.2 1.3C398.3 1.3 405.7 0.7 413 0.7C420.3 0.7 427.7 1.3 435 1.5C442.3 1.7 449.7 1.3 456.8 1.2C464 1 471 1 478.2 0.8C485.3 0.7 492.7 0.3 496.3 0.2L500 0L500 0L496.3 0C492.7 0 485.3 0 478.2 0C471 0 464 0 456.8 0C449.7 0 442.3 0 435 0C427.7 0 420.3 0 413 0C405.7 0 398.3 0 391.2 0C384 0 377 0 369.8 0C362.7 0 355.3 0 348 0C340.7 0 333.3 0 326 0C318.7 0 311.3 0 304.2 0C297 0 290 0 282.8 0C275.7 0 268.3 0 261 0C253.7 0 246.3 0 239 0C231.7 0 224.3 0 217.2 0C210 0 203 0 195.8 0C188.7 0 181.3 0 174 0C166.7 0 159.3 0 152 0C144.7 0 137.3 0 130.2 0C123 0 116 0 108.8 0C101.7 0 94.3 0 87 0C79.7 0 72.3 0 65 0C57.7 0 50.3 0 43.2 0C36 0 29 0 21.8 0C14.7 0 7.3 0 3.7 0L0 0Z" fill="#313545"></path><path d="M0 0L3.7 0C7.3 0 14.7 0 21.8 0.2C29 0.3 36 0.7 43.2 0.8C50.3 1 57.7 1 65 0.8C72.3 0.7 79.7 0.3 87 0.2C94.3 0 101.7 0 108.8 0.2C116 0.3 123 0.7 130.2 0.7C137.3 0.7 144.7 0.3 152 0.2C159.3 0 166.7 0 174 0.2C181.3 0.3 188.7 0.7 195.8 0.7C203 0.7 210 0.3 217.2 0.2C224.3 0 231.7 0 239 0C246.3 0 253.7 0 261 0C268.3 0 275.7 0 282.8 0.2C290 0.3 297 0.7 304.2 0.7C311.3 0.7 318.7 0.3 326 0.2C333.3 0 340.7 0 348 0C355.3 0 362.7 0 369.8 0.2C377 0.3 384 0.7 391.2 0.8C398.3 1 405.7 1 413 1C420.3 1 427.7 1 435 0.8C442.3 0.7 449.7 0.3 456.8 0.2C464 0 471 0 478.2 0C485.3 0 492.7 0 496.3 0L500 0L500 0L496.3 0C492.7 0 485.3 0 478.2 0C471 0 464 0 456.8 0C449.7 0 442.3 0 435 0C427.7 0 420.3 0 413 0C405.7 0 398.3 0 391.2 0C384 0 377 0 369.8 0C362.7 0 355.3 0 348 0C340.7 0 333.3 0 326 0C318.7 0 311.3 0 304.2 0C297 0 290 0 282.8 0C275.7 0 268.3 0 261 0C253.7 0 246.3 0 239 0C231.7 0 224.3 0 217.2 0C210 0 203 0 195.8 0C188.7 0 181.3 0 174 0C166.7 0 159.3 0 152 0C144.7 0 137.3 0 130.2 0C123 0 116 0 108.8 0C101.7 0 94.3 0 87 0C79.7 0 72.3 0 65 0C57.7 0 50.3 0 43.2 0C36 0 29 0 21.8 0C14.7 0 7.3 0 3.7 0L0 0Z" fill="#222831"></path></svg>