<svg id="visual" viewBox="0 0 500 15" width="500" height="15" xmlns="http://www.w3.org/2000/svg" xmlns:xlink="http://www.w3.org/1999/xlink" version="1.1"><rect x="0" y="0" width="500" height="15" fill="#393e46"></rect><path d="M0 10L2.7 10C5.3 10 10.7 10 16 9.5C21.3 9 26.7 8 32 8.3C37.3 8.7 42.7 10.3 48.2 10C53.7 9.7 59.3 7.3 64.8 6.3C70.3 5.3 75.7 5.7 81 6.8C86.3 8 91.7 10 97 10.3C102.3 10.7 107.7 9.3 113 8.7C118.3 8 123.7 8 129 7.7C134.3 7.3 139.7 6.7 145 7C150.3 7.3 155.7 8.7 161 8.3C166.3 8 171.7 6 177.2 4.3C182.7 2.7 188.3 1.3 193.8 2.3C199.3 3.3 204.7 6.7 210 6.8C215.3 7 220.7 4 226 2.8C231.3 1.7 236.7 2.3 242 3.7C247.3 5 252.7 7 258 8.2C263.3 9.3 268.7 9.7 274 9C279.3 8.3 284.7 6.7 290 7.2C295.3 7.7 300.7 10.3 306.2 10.2C311.7 10 317.3 7 322.8 6.2C328.3 5.3 333.7 6.7 339 7.8C344.3 9 349.7 10 355 9C360.3 8 365.7 5 371 4.8C376.3 4.7 381.7 7.3 387 7.5C392.3 7.7 397.7 5.3 403 5.2C408.3 5 413.7 7 419 7.7C424.3 8.3 429.7 7.7 435.2 7.5C440.7 7.3 446.3 7.7 451.8 6.5C457.3 5.3 462.7 2.7 468 1.8C473.3 1 478.7 2 484 2.5C489.3 3 494.7 3 497.3 3L500 3L500 16L497.3 16C494.7 16 489.3 16 484 16C478.7 16 473.3 16 468 16C462.7 16 457.3 16 451.8 16C446.3 16 440.7 16 435.2 16C429.7 16 424.3 16 419 16C413.7 16 408.3 16 403 16C397.7 16 392.3 16 387 16C381.7 16 376.3 16 371 16C365.7 16 360.3 16 355 16C349.7 16 344.3 16 339 16C333.7 16 328.3 16 322.8 16C317.3 16 311.7 16 306.2 16C300.7 16 295.3 16 290 16C284.7 16 279.3 16 274 16C268.7 16 263.3 16 258 16C252.7 16 247.3 16 242 16C236.7 16 231.3 16 226 16C220.7 16 215.3 16 210 16C204.7 16 199.3 16 193.8 16C188.3 16 182.7 16 177.2 16C171.7 16 166.3 16 161 16C155.7 16 150.3 16 145 16C139.7 16 134.3 16 129 16C123.7 16 118.3 16 113 16C107.7 16 102.3 16 97 16C91.7 16 86.3 16 81 16C75.7 16 70.3 16 64.8 16C59.3 16 53.7 16 48.2 16C42.7 16 37.3 16 32 16C26.7 16 21.3 16 16 16C10.7 16 5.3 16 2.7 16L0 16Z" fill="#222831" stroke-linecap="round" stroke-linejoin="miter"></path></svg>