<svg id="visual" viewBox="0 0 500 50" width="500" height="50" xmlns="http://www.w3.org/2000/svg" xmlns:xlink="http://www.w3.org/1999/xlink" version="1.1"><rect x="0" y="0" width="500" height="50" fill="#15aabf"></rect><path d="M0 14L11.8 14.8C23.7 15.7 47.3 17.3 71.2 17.5C95 17.7 119 16.3 142.8 15.7C166.7 15 190.3 15 214.2 14.8C238 14.7 262 14.3 285.8 14.5C309.7 14.7 333.3 15.3 357.2 15.7C381 16 405 16 428.8 16.2C452.7 16.3 476.3 16.7 488.2 16.8L500 17L500 0L488.2 0C476.3 0 452.7 0 428.8 0C405 0 381 0 357.2 0C333.3 0 309.7 0 285.8 0C262 0 238 0 214.2 0C190.3 0 166.7 0 142.8 0C119 0 95 0 71.2 0C47.3 0 23.7 0 11.8 0L0 0Z" fill="#1098ad"></path><path d="M0 10L11.8 9.8C23.7 9.7 47.3 9.3 71.2 10C95 10.7 119 12.3 142.8 13.5C166.7 14.7 190.3 15.3 214.2 15.2C238 15 262 14 285.8 13.5C309.7 13 333.3 13 357.2 13.2C381 13.3 405 13.7 428.8 13.5C452.7 13.3 476.3 12.7 488.2 12.3L500 12L500 0L488.2 0C476.3 0 452.7 0 428.8 0C405 0 381 0 357.2 0C333.3 0 309.7 0 285.8 0C262 0 238 0 214.2 0C190.3 0 166.7 0 142.8 0C119 0 95 0 71.2 0C47.3 0 23.7 0 11.8 0L0 0Z" fill="#35859b"></path><path d="M0 7L11.8 7C23.7 7 47.3 7 71.2 7.2C95 7.3 119 7.7 142.8 8.3C166.7 9 190.3 10 214.2 10.5C238 11 262 11 285.8 10.5C309.7 10 333.3 9 357.2 9C381 9 405 10 428.8 10.2C452.7 10.3 476.3 9.7 488.2 9.3L500 9L500 0L488.2 0C476.3 0 452.7 0 428.8 0C405 0 381 0 357.2 0C333.3 0 309.7 0 285.8 0C262 0 238 0 214.2 0C190.3 0 166.7 0 142.8 0C119 0 95 0 71.2 0C47.3 0 23.7 0 11.8 0L0 0Z" fill="#447286"></path><path d="M0 8L11.8 8C23.7 8 47.3 8 71.2 7.3C95 6.7 119 5.3 142.8 5.2C166.7 5 190.3 6 214.2 6.8C238 7.7 262 8.3 285.8 7.8C309.7 7.3 333.3 5.7 357.2 5C381 4.3 405 4.7 428.8 4.8C452.7 5 476.3 5 488.2 5L500 5L500 0L488.2 0C476.3 0 452.7 0 428.8 0C405 0 381 0 357.2 0C333.3 0 309.7 0 285.8 0C262 0 238 0 214.2 0C190.3 0 166.7 0 142.8 0C119 0 95 0 71.2 0C47.3 0 23.7 0 11.8 0L0 0Z" fill="#4a606f"></path><path d="M0 5L11.8 4.7C23.7 4.3 47.3 3.7 71.2 3.7C95 3.7 119 4.3 142.8 4.3C166.7 4.3 190.3 3.7 214.2 3.5C238 3.3 262 3.7 285.8 3.8C309.7 4 333.3 4 357.2 4.2C381 4.3 405 4.7 428.8 4.8C452.7 5 476.3 5 488.2 5L500 5L500 0L488.2 0C476.3 0 452.7 0 428.8 0C405 0 381 0 357.2 0C333.3 0 309.7 0 285.8 0C262 0 238 0 214.2 0C190.3 0 166.7 0 142.8 0C119 0 95 0 71.2 0C47.3 0 23.7 0 11.8 0L0 0Z" fill="#495057"></path></svg>