<svg id="visual" viewBox="0 0 500 50" width="500" height="50" xmlns="http://www.w3.org/2000/svg" xmlns:xlink="http://www.w3.org/1999/xlink" version="1.1"><rect x="0" y="0" width="500" height="50" fill="#15aabf"></rect><path d="M0 12L11.8 12.3C23.7 12.7 47.3 13.3 71.2 13.7C95 14 119 14 142.8 14.3C166.7 14.7 190.3 15.3 214.2 16C238 16.7 262 17.3 285.8 17C309.7 16.7 333.3 15.3 357.2 15.5C381 15.7 405 17.3 428.8 17.5C452.7 17.7 476.3 16.3 488.2 15.7L500 15L500 0L488.2 0C476.3 0 452.7 0 428.8 0C405 0 381 0 357.2 0C333.3 0 309.7 0 285.8 0C262 0 238 0 214.2 0C190.3 0 166.7 0 142.8 0C119 0 95 0 71.2 0C47.3 0 23.7 0 11.8 0L0 0Z" fill="#1098ad"></path><path d="M0 13L11.8 13C23.7 13 47.3 13 71.2 13.5C95 14 119 15 142.8 14.8C166.7 14.7 190.3 13.3 214.2 13C238 12.7 262 13.3 285.8 12.8C309.7 12.3 333.3 10.7 357.2 10.5C381 10.3 405 11.7 428.8 12.8C452.7 14 476.3 15 488.2 15.5L500 16L500 0L488.2 0C476.3 0 452.7 0 428.8 0C405 0 381 0 357.2 0C333.3 0 309.7 0 285.8 0C262 0 238 0 214.2 0C190.3 0 166.7 0 142.8 0C119 0 95 0 71.2 0C47.3 0 23.7 0 11.8 0L0 0Z" fill="#35859b"></path><path d="M0 10L11.8 10.3C23.7 10.7 47.3 11.3 71.2 11.2C95 11 119 10 142.8 10C166.7 10 190.3 11 214.2 11.5C238 12 262 12 285.8 11.5C309.7 11 333.3 10 357.2 9.3C381 8.7 405 8.3 428.8 8.3C452.7 8.3 476.3 8.7 488.2 8.8L500 9L500 0L488.2 0C476.3 0 452.7 0 428.8 0C405 0 381 0 357.2 0C333.3 0 309.7 0 285.8 0C262 0 238 0 214.2 0C190.3 0 166.7 0 142.8 0C119 0 95 0 71.2 0C47.3 0 23.7 0 11.8 0L0 0Z" fill="#447286"></path><path d="M0 7L11.8 7C23.7 7 47.3 7 71.2 7.2C95 7.3 119 7.7 142.8 7.8C166.7 8 190.3 8 214.2 7.3C238 6.7 262 5.3 285.8 4.8C309.7 4.3 333.3 4.7 357.2 5C381 5.3 405 5.7 428.8 6.2C452.7 6.7 476.3 7.3 488.2 7.7L500 8L500 0L488.2 0C476.3 0 452.7 0 428.8 0C405 0 381 0 357.2 0C333.3 0 309.7 0 285.8 0C262 0 238 0 214.2 0C190.3 0 166.7 0 142.8 0C119 0 95 0 71.2 0C47.3 0 23.7 0 11.8 0L0 0Z" fill="#4a606f"></path><path d="M0 4L11.8 3.5C23.7 3 47.3 2 71.2 1.8C95 1.7 119 2.3 142.8 2.7C166.7 3 190.3 3 214.2 3C238 3 262 3 285.8 3C309.7 3 333.3 3 357.2 2.7C381 2.3 405 1.7 428.8 2C452.7 2.3 476.3 3.7 488.2 4.3L500 5L500 0L488.2 0C476.3 0 452.7 0 428.8 0C405 0 381 0 357.2 0C333.3 0 309.7 0 285.8 0C262 0 238 0 214.2 0C190.3 0 166.7 0 142.8 0C119 0 95 0 71.2 0C47.3 0 23.7 0 11.8 0L0 0Z" fill="#495057"></path></svg>