<svg id="visual" viewBox="0 0 500 50" width="500" height="50" xmlns="http://www.w3.org/2000/svg" xmlns:xlink="http://www.w3.org/1999/xlink" version="1.1"><rect x="0" y="0" width="500" height="50" fill="#15aabf"></rect><path d="M0 18L11.8 18.2C23.7 18.3 47.3 18.7 71.2 18.5C95 18.3 119 17.7 142.8 17C166.7 16.3 190.3 15.7 214.2 16C238 16.3 262 17.7 285.8 18.2C309.7 18.7 333.3 18.3 357.2 18.3C381 18.3 405 18.7 428.8 18.5C452.7 18.3 476.3 17.7 488.2 17.3L500 17L500 0L488.2 0C476.3 0 452.7 0 428.8 0C405 0 381 0 357.2 0C333.3 0 309.7 0 285.8 0C262 0 238 0 214.2 0C190.3 0 166.7 0 142.8 0C119 0 95 0 71.2 0C47.3 0 23.7 0 11.8 0L0 0Z" fill="#1098ad"></path><path d="M0 12L11.8 12.3C23.7 12.7 47.3 13.3 71.2 13.7C95 14 119 14 142.8 14C166.7 14 190.3 14 214.2 14.3C238 14.7 262 15.3 285.8 15.3C309.7 15.3 333.3 14.7 357.2 13.8C381 13 405 12 428.8 11.7C452.7 11.3 476.3 11.7 488.2 11.8L500 12L500 0L488.2 0C476.3 0 452.7 0 428.8 0C405 0 381 0 357.2 0C333.3 0 309.7 0 285.8 0C262 0 238 0 214.2 0C190.3 0 166.7 0 142.8 0C119 0 95 0 71.2 0C47.3 0 23.7 0 11.8 0L0 0Z" fill="#35859b"></path><path d="M0 9L11.8 9.5C23.7 10 47.3 11 71.2 11.2C95 11.3 119 10.7 142.8 10.2C166.7 9.7 190.3 9.3 214.2 9.2C238 9 262 9 285.8 9.5C309.7 10 333.3 11 357.2 11.3C381 11.7 405 11.3 428.8 11.3C452.7 11.3 476.3 11.7 488.2 11.8L500 12L500 0L488.2 0C476.3 0 452.7 0 428.8 0C405 0 381 0 357.2 0C333.3 0 309.7 0 285.8 0C262 0 238 0 214.2 0C190.3 0 166.7 0 142.8 0C119 0 95 0 71.2 0C47.3 0 23.7 0 11.8 0L0 0Z" fill="#447286"></path><path d="M0 4L11.8 4C23.7 4 47.3 4 71.2 4C95 4 119 4 142.8 4.7C166.7 5.3 190.3 6.7 214.2 7.3C238 8 262 8 285.8 7.3C309.7 6.7 333.3 5.3 357.2 5.3C381 5.3 405 6.7 428.8 7.2C452.7 7.7 476.3 7.3 488.2 7.2L500 7L500 0L488.2 0C476.3 0 452.7 0 428.8 0C405 0 381 0 357.2 0C333.3 0 309.7 0 285.8 0C262 0 238 0 214.2 0C190.3 0 166.7 0 142.8 0C119 0 95 0 71.2 0C47.3 0 23.7 0 11.8 0L0 0Z" fill="#4a606f"></path><path d="M0 1L11.8 1.2C23.7 1.3 47.3 1.7 71.2 1.8C95 2 119 2 142.8 2C166.7 2 190.3 2 214.2 2.5C238 3 262 4 285.8 4.2C309.7 4.3 333.3 3.7 357.2 3.5C381 3.3 405 3.7 428.8 3.3C452.7 3 476.3 2 488.2 1.5L500 1L500 0L488.2 0C476.3 0 452.7 0 428.8 0C405 0 381 0 357.2 0C333.3 0 309.7 0 285.8 0C262 0 238 0 214.2 0C190.3 0 166.7 0 142.8 0C119 0 95 0 71.2 0C47.3 0 23.7 0 11.8 0L0 0Z" fill="#495057"></path></svg>