<svg id="visual" viewBox="0 0 500 50" width="500" height="50" xmlns="http://www.w3.org/2000/svg" xmlns:xlink="http://www.w3.org/1999/xlink" version="1.1"><rect x="0" y="0" width="500" height="50" fill="#15aabf"></rect><path d="M0 17L11.8 17.2C23.7 17.3 47.3 17.7 71.2 17.5C95 17.3 119 16.7 142.8 16.5C166.7 16.3 190.3 16.7 214.2 17.2C238 17.7 262 18.3 285.8 18.5C309.7 18.7 333.3 18.3 357.2 18.3C381 18.3 405 18.7 428.8 18.2C452.7 17.7 476.3 16.3 488.2 15.7L500 15L500 0L488.2 0C476.3 0 452.7 0 428.8 0C405 0 381 0 357.2 0C333.3 0 309.7 0 285.8 0C262 0 238 0 214.2 0C190.3 0 166.7 0 142.8 0C119 0 95 0 71.2 0C47.3 0 23.7 0 11.8 0L0 0Z" fill="#1098ad"></path><path d="M0 14L11.8 13.3C23.7 12.7 47.3 11.3 71.2 10.7C95 10 119 10 142.8 10.2C166.7 10.3 190.3 10.7 214.2 11.5C238 12.3 262 13.7 285.8 14C309.7 14.3 333.3 13.7 357.2 12.7C381 11.7 405 10.3 428.8 10C452.7 9.7 476.3 10.3 488.2 10.7L500 11L500 0L488.2 0C476.3 0 452.7 0 428.8 0C405 0 381 0 357.2 0C333.3 0 309.7 0 285.8 0C262 0 238 0 214.2 0C190.3 0 166.7 0 142.8 0C119 0 95 0 71.2 0C47.3 0 23.7 0 11.8 0L0 0Z" fill="#35859b"></path><path d="M0 11L11.8 10.8C23.7 10.7 47.3 10.3 71.2 10.5C95 10.7 119 11.3 142.8 10.8C166.7 10.3 190.3 8.7 214.2 8.7C238 8.7 262 10.3 285.8 11C309.7 11.7 333.3 11.3 357.2 10.7C381 10 405 9 428.8 8.7C452.7 8.3 476.3 8.7 488.2 8.8L500 9L500 0L488.2 0C476.3 0 452.7 0 428.8 0C405 0 381 0 357.2 0C333.3 0 309.7 0 285.8 0C262 0 238 0 214.2 0C190.3 0 166.7 0 142.8 0C119 0 95 0 71.2 0C47.3 0 23.7 0 11.8 0L0 0Z" fill="#447286"></path><path d="M0 4L11.8 4.2C23.7 4.3 47.3 4.7 71.2 5.2C95 5.7 119 6.3 142.8 6.2C166.7 6 190.3 5 214.2 5.2C238 5.3 262 6.7 285.8 7.2C309.7 7.7 333.3 7.3 357.2 7.2C381 7 405 7 428.8 6.7C452.7 6.3 476.3 5.7 488.2 5.3L500 5L500 0L488.2 0C476.3 0 452.7 0 428.8 0C405 0 381 0 357.2 0C333.3 0 309.7 0 285.8 0C262 0 238 0 214.2 0C190.3 0 166.7 0 142.8 0C119 0 95 0 71.2 0C47.3 0 23.7 0 11.8 0L0 0Z" fill="#4a606f"></path><path d="M0 2L11.8 2.2C23.7 2.3 47.3 2.7 71.2 3C95 3.3 119 3.7 142.8 3.8C166.7 4 190.3 4 214.2 3.7C238 3.3 262 2.7 285.8 2.5C309.7 2.3 333.3 2.7 357.2 2.7C381 2.7 405 2.3 428.8 2.2C452.7 2 476.3 2 488.2 2L500 2L500 0L488.2 0C476.3 0 452.7 0 428.8 0C405 0 381 0 357.2 0C333.3 0 309.7 0 285.8 0C262 0 238 0 214.2 0C190.3 0 166.7 0 142.8 0C119 0 95 0 71.2 0C47.3 0 23.7 0 11.8 0L0 0Z" fill="#495057"></path></svg>