<svg id="visual" viewBox="0 0 500 30" width="500" height="30" xmlns="http://www.w3.org/2000/svg" xmlns:xlink="http://www.w3.org/1999/xlink" version="1.1"><rect x="0" y="0" width="500" height="30" fill="#4FD3C4"></rect><path d="M0 19L71 21L143 15L214 16L286 22L357 22L429 14L500 21L500 0L429 0L357 0L286 0L214 0L143 0L71 0L0 0Z" fill="#c1f8cf"></path><path d="M0 18L71 10L143 17L214 10L286 13L357 17L429 16L500 13L500 0L429 0L357 0L286 0L214 0L143 0L71 0L0 0Z" fill="#5cd7d2"></path><path d="M0 9L71 13L143 11L214 13L286 8L357 7L429 10L500 12L500 0L429 0L357 0L286 0L214 0L143 0L71 0L0 0Z" fill="#00afdf"></path><path d="M0 4L71 4L143 4L214 6L286 5L357 5L429 6L500 7L500 0L429 0L357 0L286 0L214 0L143 0L71 0L0 0Z" fill="#1c7ed6"></path></svg>