<svg id="visual" viewBox="0 0 500 30" width="500" height="30" xmlns="http://www.w3.org/2000/svg" xmlns:xlink="http://www.w3.org/1999/xlink" version="1.1"><rect x="0" y="0" width="500" height="30" fill="#1c7ed6"></rect><path d="M0 22L71 13L143 16L214 19L286 20L357 15L429 19L500 22L500 0L429 0L357 0L286 0L214 0L143 0L71 0L0 0Z" fill="#339af0"></path><path d="M0 18L71 12L143 16L214 14L286 18L357 15L429 18L500 18L500 0L429 0L357 0L286 0L214 0L143 0L71 0L0 0Z" fill="#2b84fd"></path><path d="M0 10L71 10L143 7L214 11L286 11L357 10L429 8L500 11L500 0L429 0L357 0L286 0L214 0L143 0L71 0L0 0Z" fill="#5d67fe"></path><path d="M0 3L71 2L143 7L214 5L286 4L357 7L429 7L500 5L500 0L429 0L357 0L286 0L214 0L143 0L71 0L0 0Z" fill="#9234f0"></path></svg>